:FULLY-SPECIFIED
:FORCE-ALL-JOINTS-BE-3DOF
:DEGREES
2650
root -1.75996 15.0949 -28.5927 158.624 -78.0709 -162.848
lfemur -35.2853 26.462 -3.72762
ltibia 61.7965 -0 0
lfoot 9.7299 12.8547 -0.218657
ltoes -2.31662 0 0
rfemur -35.1746 -21.8457 20.9616
rtibia 70.3988 -0 0
rfoot -22.6119 -12.5125 -0.0702798
rtoes -6.12635 0 0
lowerback 16.3948 3.71754 0.468111
upperback -0.857071 5.15762 1.48556
thorax -9.93989 2.46639 0.166944
lowerneck -3.0364 7.37925 0.447825
upperneck 6.3358 9.65698 2.10934
head 2.595 4.88333 0.955773
lclavicle -7.76456e-14 -1.07344e-14 0
lhumerus 21.0135 -28.8739 73.2836
lradius 115.742 -0 0
lwrist 4.74229 0 0
lhand -35.3263 33.866 0.586856
lfingers 7.12502 -0 0
lthumb -8.45543 63.539 0.582374
rclavicle -7.76456e-14 -1.07344e-14 0
rhumerus -23.615 50.2898 -82.508
rradius 103.917 -0 0
rwrist -45.1503 0 0
rhand -10.2148 -24.4846 0.289999
rfingers 7.12502 -0 0
rthumb 15.7544 -53.4902 0.357701
2651
root -1.87331 15.0954 -28.5656 160.479 -76.923 -164.837
lfemur -35.3835 26.7164 -3.58486
ltibia 60.5554 -0 0
lfoot 10.475 12.7702 -0.21316
ltoes -1.51928 0 0
rfemur -34.8032 -21.6009 20.7868
rtibia 70.4636 -0 0
rfoot -22.8778 -12.4367 -0.0685215
rtoes -6.18058 0 0
lowerback 16.3652 3.85621 0.621119
upperback -0.860404 5.36497 1.41883
thorax -9.91483 2.5555 -0.0421609
lowerneck -3.00169 7.5779 0.603053
upperneck 6.45774 9.9204 1.99183
head 2.63786 5.01371 0.90258
lclavicle -7.76456e-14 -1.07344e-14 0
lhumerus 19.6632 -27.3254 73.8931
lradius 115.445 -0 0
lwrist 3.15167 0 0
lhand -35.7161 33.4336 0.572135
lfingers 7.12502 -0 0
lthumb -8.83165 63.0944 0.567766
rclavicle -7.76456e-14 -1.07344e-14 0
rhumerus -24.6725 50.8954 -83.324
rradius 104.715 -0 0
rwrist -47.679 0 0
rhand -9.61578 -24.3455 0.282722
rfingers 7.12502 -0 0
rthumb 16.3316 -53.3122 0.348726
2652
root -1.98665 15.0958 -28.5384 162.022 -75.7629 -166.515
lfemur -35.4811 26.971 -3.44227
ltibia 59.3143 -0 0
lfoot 11.2201 12.6859 -0.206565
ltoes -0.721946 0 0
rfemur -34.4333 -21.355 20.6141
rtibia 70.5284 -0 0
rfoot -23.1438 -12.361 -0.0664116
rtoes -6.23481 0 0
lowerback 16.3359 3.99496 0.774081
upperback -0.863981 5.57232 1.35206
thorax -9.89009 2.64469 -0.251242
lowerneck -2.96641 7.77646 0.758475
upperneck 6.57922 10.1841 1.87478
head 2.68062 5.14412 0.849474
lclavicle -7.76456e-14 -1.07344e-14 0
lhumerus 18.3494 -25.7648 74.4537
lradius 115.147 -0 0
lwrist 1.56104 0 0
lhand -36.1057 33.0012 0.554474
lfingers 7.12502 -0 0
lthumb -9.20774 62.6499 0.550239
rclavicle -7.76456e-14 -1.07344e-14 0
rhumerus -25.7576 51.4913 -84.1685
rradius 105.513 -0 0
rwrist -50.2076 0 0
rhand -9.01673 -24.2065 0.273991
rfingers 7.12502 -0 0
rthumb 16.9088 -53.1343 0.337959
2653
root -2.09999 15.0963 -28.5112 163.323 -74.5933 -167.951
lfemur -35.5783 27.2259 -3.29985
ltibia 58.0732 -0 0
lfoot 11.9651 12.6016 -0.198875
ltoes 0.0753929 -0 0
rfemur -34.0648 -21.1082 20.4434
rtibia 70.5932 -0 0
rfoot -23.4098 -12.2853 -0.0639501
rtoes -6.28904 0 0
lowerback 16.307 4.13378 0.926998
upperback -0.867802 5.77967 1.28525
thorax -9.86567 2.73398 -0.460299
lowerneck -2.93057 7.97492 0.914094
upperneck 6.70025 10.448 1.75821
head 2.72326 5.27457 0.796455
lclavicle -7.76456e-14 -1.07344e-14 0
lhumerus 17.069 -24.1933 74.9678
lradius 114.85 -0 0
lwrist -0.0295844 0 0
lhand -36.4952 32.569 0.533873
lfingers 7.12502 -0 0
lthumb -9.58368 62.2056 0.529796
rclavicle -7.76456e-14 -1.07344e-14 0
rhumerus -26.8712 52.0769 -85.0424
rradius 106.312 -0 0
rwrist -52.7363 0 0
rhand -8.4177 -24.0676 0.263808
rfingers 7.12502 -0 0
rthumb 17.4859 -52.9565 0.325399
2654
root -2.21333 15.0967 -28.4841 164.432 -73.4163 -169.195
lfemur -35.675 27.481 -3.15758
ltibia 56.8321 -0 0
lfoot 12.7102 12.5175 -0.19009
ltoes 0.872731 -0 0
rfemur -33.6977 -20.8603 20.2747
rtibia 70.658 -0 0
rfoot -23.6757 -12.2096 -0.0611373
rtoes -6.34326 0 0
lowerback 16.2785 4.27268 1.07987
upperback -0.871867 5.98701 1.21841
thorax -9.84158 2.82336 -0.669334
lowerneck -2.89417 8.17329 1.06992
upperneck 6.82085 10.7121 1.6421
head 2.76579 5.40507 0.743522
lclavicle -7.76456e-14 -1.07344e-14 0
lhumerus 15.8192 -22.6118 75.4377
lradius 114.552 -0 0
lwrist -1.62021 0 0
lhand -36.8845 32.1369 0.510336
lfingers 7.12502 -0 0
lthumb -9.95945 61.7614 0.506438
rclavicle -7.76456e-14 -1.07344e-14 0
rhumerus -28.0142 52.6517 -85.9464
rradius 107.11 -0 0
rwrist -55.2649 0 0
rhand -7.81871 -23.9289 0.252173
rfingers 7.12502 -0 0
rthumb 18.063 -52.7788 0.31105
